<svg xmlns="http://www.w3.org/2000/svg" version="1.1" xmlns:xlink="http://www.w3.org/1999/xlink" viewBox="0 0 200 200"><rect width="200" height="200" fill="url('#gradient')"></rect><defs><linearGradient id="gradient" gradientTransform="rotate(45 0.5 0.5)"><stop offset="0%" stop-color="#dee90b"></stop><stop offset="100%" stop-color="#d9e241"></stop></linearGradient></defs><g><g fill="#1b3855" transform="matrix(3.0553945945945946,0,0,3.0553945945945946,27.722412155971014,121.71295363379814)" stroke="#0e5278" stroke-width="0.2"><path d="M4.50-14.22L4.50-2.64L10.47-2.64L10.47 0L1.07 0L1.07-14.22L4.50-14.22ZM15.57-14.22L15.57 0L12.15 0L12.15-14.22L15.57-14.22ZM17.95-14.22L22.45-14.22L25.63-4.33L28.79-14.22L33.30-14.22L33.30 0L29.86 0L29.86-3.32L30.20-10.12L26.76 0L24.49 0L21.04-10.13L21.38-3.32L21.38 0L17.95 0L17.95-14.22ZM42.81-3.78L42.81-3.78Q42.81-4.53 42.28-4.95Q41.75-5.37 40.41-5.82Q39.07-6.27 38.22-6.69L38.22-6.69Q35.46-8.05 35.46-10.42L35.46-10.42Q35.46-11.60 36.15-12.50Q36.84-13.41 38.10-13.91Q39.36-14.41 40.93-14.41L40.93-14.41Q42.46-14.41 43.68-13.87Q44.89-13.32 45.57-12.31Q46.24-11.30 46.24-10L46.24-10L42.82-10Q42.82-10.87 42.29-11.35Q41.76-11.83 40.85-11.83L40.85-11.83Q39.93-11.83 39.40-11.42Q38.87-11.02 38.87-10.39L38.87-10.39Q38.87-9.84 39.45-9.40Q40.04-8.96 41.51-8.48Q42.99-8.01 43.94-7.46L43.94-7.46Q46.24-6.13 46.24-3.80L46.24-3.80Q46.24-1.93 44.83-0.87Q43.43 0.20 40.98 0.20L40.98 0.20Q39.25 0.20 37.85-0.42Q36.45-1.04 35.74-2.12Q35.03-3.20 35.03-4.61L35.03-4.61L38.47-4.61Q38.47-3.47 39.06-2.92Q39.65-2.38 40.98-2.38L40.98-2.38Q41.83-2.38 42.32-2.75Q42.81-3.12 42.81-3.78Z"></path></g></g></svg>